<svg xmlns="http://www.w3.org/2000/svg" xmlns:xlink="http://www.w3.org/1999/xlink" width="1080" zoomAndPan="magnify" viewBox="0 0 810 809.999993" height="1080" preserveAspectRatio="xMidYMid meet" version="1.0"><defs><clipPath id="c7e21da0a1"><path d="M 201 151.910156 L 260 151.910156 L 260 265 L 201 265 Z M 201 151.910156 " clip-rule="nonzero"/></clipPath><clipPath id="702e999187"><path d="M 230 235 L 343.414062 235 L 343.414062 293.660156 L 230 293.660156 Z M 230 235 " clip-rule="nonzero"/></clipPath><clipPath id="6a7c46d6e9"><path d="M 117.324219 235 L 230.675781 235 L 230.675781 293.660156 L 117.324219 293.660156 Z M 117.324219 235 " clip-rule="nonzero"/></clipPath></defs><rect x="-81" width="972" fill="#ffffff" y="-80.999999" height="971.999992" fill-opacity="1"/><rect x="-81" width="972" fill="#ffffff" y="-80.999999" height="971.999992" fill-opacity="1"/><rect x="-81" width="972" fill="#ffffff" y="-80.999999" height="971.999992" fill-opacity="1"/><g clip-path="url(#c7e21da0a1)"><path fill="#3cb0a0" d="M 250.429688 151.910156 C 250.429688 151.910156 231.449219 158.867188 246.617188 199.777344 C 253.558594 218.492188 240.402344 236.246094 230.367188 236.246094 C 220.332031 236.246094 207.175781 218.492188 214.117188 199.777344 C 229.289062 158.867188 210.308594 151.910156 210.308594 151.910156 C 229.21875 173.523438 183.140625 205.347656 209.800781 233.460938 C 224.535156 248.996094 230.367188 264.65625 230.367188 264.65625 C 230.367188 264.65625 236.203125 248.996094 250.9375 233.460938 C 277.597656 205.347656 231.515625 173.523438 250.429688 151.910156 Z M 230.367188 228.367188 C 237.066406 228.367188 242.492188 222.953125 242.492188 216.277344 C 242.492188 209.597656 237.066406 204.183594 230.367188 204.183594 C 223.671875 204.183594 218.242188 209.597656 218.242188 216.277344 C 218.242188 222.953125 223.671875 228.367188 230.367188 228.367188 " fill-opacity="1" fill-rule="nonzero"/></g><g clip-path="url(#702e999187)"><path fill="#b2164f" d="M 295.421875 280.863281 C 276.660156 287.789062 258.859375 274.667969 258.859375 264.65625 C 258.859375 254.648438 276.660156 241.527344 295.421875 248.449219 C 336.4375 263.578125 343.414062 244.652344 343.414062 244.652344 C 321.746094 263.511719 289.835938 217.554688 261.652344 244.144531 C 246.074219 258.839844 230.367188 264.65625 230.367188 264.65625 C 230.367188 264.65625 246.074219 270.476562 261.652344 285.171875 C 289.835938 311.761719 321.746094 265.804688 343.414062 284.667969 C 343.414062 284.667969 336.4375 265.738281 295.421875 280.863281 Z M 266.753906 264.65625 C 266.753906 271.335938 272.179688 276.75 278.875 276.75 C 285.574219 276.75 291.003906 271.335938 291.003906 264.65625 C 291.003906 257.980469 285.574219 252.566406 278.875 252.566406 C 272.179688 252.566406 266.753906 257.980469 266.753906 264.65625 " fill-opacity="1" fill-rule="nonzero"/></g><path fill="#51ade5" d="M 297.699219 212.214844 C 292.332031 223.84375 278.289062 225.949219 273.730469 221.40625 C 269.179688 216.863281 271.289062 202.859375 282.949219 197.507812 C 308.4375 185.816406 302.996094 174.070312 302.996094 174.070312 C 301.746094 192.429688 266.363281 186.015625 265.667969 210.832031 C 265.289062 224.550781 260.8125 234.292969 260.8125 234.292969 C 260.8125 234.292969 270.582031 229.828125 284.335938 229.449219 C 309.21875 228.757812 302.785156 193.46875 321.195312 192.222656 C 321.195312 192.222656 309.421875 186.792969 297.699219 212.214844 Z M 277.316406 206.863281 C 274.28125 209.890625 274.28125 214.800781 277.316406 217.835938 C 280.355469 220.863281 285.28125 220.863281 288.320312 217.835938 C 291.355469 214.800781 291.355469 209.890625 288.324219 206.863281 C 285.28125 203.828125 280.355469 203.828125 277.316406 206.863281 " fill-opacity="1" fill-rule="nonzero"/><path fill="#fac807" d="M 195.066406 210.832031 C 194.375 186.015625 158.992188 192.429688 157.742188 174.070312 C 157.742188 174.070312 152.292969 185.8125 177.785156 197.507812 C 189.445312 202.855469 191.554688 216.863281 187.003906 221.40625 C 182.449219 225.949219 168.40625 223.84375 163.039062 212.210938 C 151.316406 186.792969 139.542969 192.21875 139.542969 192.21875 C 157.953125 193.46875 151.523438 228.757812 176.402344 229.449219 C 190.15625 229.828125 199.929688 234.292969 199.929688 234.292969 C 199.929688 234.292969 195.449219 224.550781 195.066406 210.832031 Z M 183.421875 217.832031 C 186.460938 214.800781 186.460938 209.890625 183.421875 206.863281 C 180.382812 203.828125 175.453125 203.828125 172.421875 206.859375 C 169.378906 209.890625 169.378906 214.800781 172.421875 217.835938 C 175.453125 220.859375 180.382812 220.859375 183.421875 217.832031 " fill-opacity="1" fill-rule="nonzero"/><g clip-path="url(#6a7c46d6e9)"><path fill="#e6571c" d="M 199.085938 244.144531 C 170.898438 217.554688 138.992188 263.515625 117.324219 244.652344 C 117.324219 244.652344 124.300781 263.578125 165.3125 248.449219 C 184.082031 241.527344 201.878906 254.648438 201.878906 264.65625 C 201.878906 274.667969 184.082031 287.789062 165.3125 280.863281 C 124.300781 265.738281 117.324219 284.667969 117.324219 284.667969 C 138.992188 265.804688 170.898438 311.761719 199.085938 285.171875 C 214.664062 270.476562 230.367188 264.65625 230.367188 264.65625 C 230.367188 264.65625 214.664062 258.84375 199.085938 244.144531 Z M 193.988281 264.65625 C 193.988281 257.976562 188.554688 252.566406 181.859375 252.566406 C 175.164062 252.566406 169.734375 257.976562 169.734375 264.65625 C 169.734375 271.335938 175.164062 276.75 181.859375 276.75 C 188.554688 276.75 193.988281 271.335938 193.988281 264.65625 " fill-opacity="1" fill-rule="nonzero"/></g></svg>